# xmcd
#
# Track frame offsets:
#	150
#	13444
#	24689
#	35723
#	46376
#	57322
#	70336
#	82301
#	94166
#	106091
#	116491
#
# Disc length: 1725 seconds
#
# Revision: 1
# Processed by: cddbd v1.5.1PL0 Copyright (c) Steve Scherf et al.
# Submitted via: audiograbber 1.83.01
#
DISCID=9b06bb0b
DTITLE=Tanya Tucker - Delta Dawn
DYEAR=1900
DGENRE=
TTITLE0=Delta Dawn
TTITLE1=New York City Song
TTITLE2=Smell the Flowers
TTITLE3=If You Touch Me
TTITLE4=He's All I Got
TTITLE5=The Jamestown Ferry
TTITLE6=Loving You Could Never Be Better
TTITLE7=Soul Song
TTITLE8=Love's The Answer
TTITLE9=The Happiest Girl In The Whole U.S.A.
TTITLE10=I'm So Lonesome I Could Cry
EXTD=
EXTT0=
EXTT1=
EXTT2=
EXTT3=
EXTT4=
EXTT5=
EXTT6=
EXTT7=
EXTT8=
EXTT9=
EXTT10=
PLAYORDER=
